<?xml version="1.0" encoding="UTF-8"?>
<svg id="Calque_1" xmlns="http://www.w3.org/2000/svg" version="1.1" viewBox="0 0 1024 1024">
  <!-- Generator: Adobe Illustrator 29.5.0, SVG Export Plug-In . SVG Version: 2.1.0 Build 137)  -->
  <defs>
    <style>
      .st0 {
        fill: #fdfbfa;
      }

      .st1 {
        fill: #14c8ca;
      }

      .st2 {
        fill: #082e51;
      }
    </style>
  </defs>
  <path class="st1" d="M224.28,633.7c-5.57-5.82-14.31-29.7-20.81-32.05-7.74-2.81-16.92-1.72-23.93-1.74-16.19-.04-19.96-.1-57.52-.43-21.47-.19-37.72-22.26-38.06-47.94-.6-45.25,1.08-71.54.12-117.95-.27-36.43,20.44-47.84,52.38-48.62,45.05-1.1,77.67.25,122.91.16,44.42-1.9,52.34,15.37,51.96,48.01-.38,33.15,2.51,81.72-.3,113.41-3.22,30.49-21.53,47.82-51.39,52.75-6.91,1.14-23.31-1.44-25.17,8.93-1.59,8.82,5.9,32.55-10.2,25.48ZM137.76,407.26c-43.05,9.19-30.03,62.26-31.7,95.24-.78,15.47-3.05,41.23,2.45,55.49,4.87,12.63,17.47,21.89,30.95,23.05,37.01,3.19,78.54-2.45,116.03-.05,16.53-2.01,32.09-16.68,33.54-33.46,2.95-34.13-2.27-72.45-.04-107.03-1.56-15.77-16.63-31.89-32.5-33.5-37.23-3.76-80.85,2.58-118.73.25Z"/>
  <path class="st2" d="M438.89,469.47l-19.54,6.79c-5.35-10.65-12.48-17.77-24.97-18.76-3.37-.27-7.92-1.06-13.56.43-1.39.37-5.27,1.5-9.48,4.42-4.73,3.27-7.3,7-8.58,8.91-7.26,10.76-7,23.4-6.93,25.59.09,2.68,1.29,27.81,20.69,37.5,3.32,1.66,12.34,5.48,23.17,2.52,8.28-2.26,15.35-8.24,20.87-17.31l18.27,7c-6.7,22.4-30.38,35.07-53.3,32.79-71.59-7.12-66.73-129.26,14.86-121.86,17.79,1.61,33.7,14.89,38.52,31.97Z"/>
  <path class="st2" d="M509.2,473.46c10.77,4.28,15.51,13.77,16.67,16.17,1.15,2.39,2.57,6.06,3.13,10.87,0,1.63,0,3.25,0,4.88,0,17.87,0,35.75,0,53.62h-22v-53.5c-.78-5.68-3.35-8.36-4.5-9.5-8.45-8.35-22.18-4.39-29.18,5-.75,1-2.15,2.47-2.32,7.5v50.5h-22v-124h22v50c.78-2.28,2.29-3.86,4.05-5.8,1.55-1.7,3.64-3.3,5.08-4.26,6.61-4.38,16.99-3.71,19.01-3.55,2.81.22,6.07.48,10.06,2.07Z"/>
  <path class="st2" d="M747,435v72c1.61-1.7,3.21-3.41,4.82-5.12,9.34-9.96,18.57-19.92,27.68-29.88h27.5l-34.93,36.64,34.93,50.36h-26l-26.98-38.52c-.09-.14-.24-.32-.47-.4-.69-.24-1.55.6-1.97,1-1.2,1.16-2.74,2.63-4.58,4.42v33.5h-22v-124h22Z"/>
  <path class="st2" d="M601.69,473.81c11.33,5.75,16.22,15.79,17.89,19.35,5.52,11.78,4.17,22.66,3.42,26.84h-62c-.76,10,6.63,22.09,17.5,22.08,2.24,0,9.61-.84,11.78-1.3,3.77-.8,9.55-5.33,11.28-8.84l16.44,9.55c-16.02,27.69-63.59,26.09-75.48-4.5-8.38-21.56-1.94-50.43,17.01-61.42,6.88-3.99,17.31-6.76,28.05-5.65,3.03.31,8.23.9,14.12,3.89ZM602,505c-1.17-24.87-38.77-23.86-41,0h41Z"/>
  <path class="st2" d="M871.5,472l22.99,59.01,19.51-59.01h24c-13.13,30.4-22.32,62.62-35.53,92.97-9.27,21.28-17.37,32.73-43.53,26.51.02-.66.04-1.32.06-1.98v-15.5c14.58,4.55,20.07-3.74,23.71-16.35l-34.71-85.65h23.5Z"/>
  <path class="st2" d="M714,534.01c-8.92,28.8-52.84,35.11-72.02,13.51-11.84-13.34-13.28-39.28-5.99-55.03,12.62-27.28,50.05-29.43,70.41-9.38,1.5,1.47,8.26,9.24,7.17,10.92-6.02,2.68-12.04,5.35-18.05,8.03-.93-1.67-5.02-8.53-13.7-11.37-1.41-.46-11.11-3.54-19.45,2.03-7.03,4.7-10.2,14.23-9.39,25.82,1.79,25.67,31.45,28.7,42.63,7.54l18.4,7.93Z"/>
  <rect class="st2" x="816" y="435" width="22" height="124"/>
  <path class="st0" d="M138.54,401.63c83.82-1.41,77.27-1.87,126.03-.25,15.95.53,22.91,11.38,24.48,27.15.8,38.86,1.46,76.01-.02,119-.58,16.83-17.01,31.44-33.54,33.46-38.09,1.05-78.98,1.42-116.36,1.2-24.86-.15-26.17-11.41-30.61-24.2-4.57-13.17-4.05-36.64-3.89-56.13.71-83.32-8.93-101.65,33.91-100.22ZM246.74,447.15l-65.38,62.77c-2.23.39-22.74-25.88-27.88-26.9-1.88-.37-4.67-.26-6.46.5-3.39,1.44-13.56,12.74-9.47,17.44l36.42,38.58c3.49,2.99,6.13,4.64,10.78,2.7l76.66-75.32c5.86-6.43-9.46-20.71-14.67-19.77Z"/>
  <path class="st0" d="M602,505h-41c2.23-23.86,39.83-24.87,41,0Z"/>
  <path class="st1" d="M246.74,447.15c5.21-.94,20.53,13.33,14.67,19.77l-76.66,75.32c-4.65,1.93-7.3.28-10.78-2.7l-36.42-38.58c-4.1-4.69,6.07-15.99,9.47-17.44,1.79-.76,4.58-.87,6.46-.5,5.14,1.02,25.66,27.29,27.88,26.9l65.38-62.77Z"/>
</svg>
